<svg width="130.000000" height="19.000000" viewBox="0 0 130 19" fill="none" xmlns="http://www.w3.org/2000/svg" xmlns:xlink="http://www.w3.org/1999/xlink">
	<desc>
			Created with Pixso.
	</desc>
	<defs>
		<clipPath id="clip13_2926">
			<rect id="Format=Wordmark" rx="0.000000" width="129.000000" height="18.000000" transform="translate(0.500000 0.500000)" fill="white" fill-opacity="0"/>
		</clipPath>
	</defs>
	<rect id="Format=Wordmark" rx="0.000000" width="129.000000" height="18.000000" transform="translate(0.500000 0.500000)" fill="#FFFFFF" fill-opacity="0"/>
	<g clip-path="url(#clip13_2926)">
		<path id="Vector" d="M3.23 18.98L3.23 15.83L17.41 15.83L17.41 18.98L3.23 18.98ZM14.4 3.26L6.24 3.26L10.32 8.89L14.4 3.26ZM20.56 0.11L10.32 14.26L0.08 0.11L20.56 0.11Z" fill="#00B3E6" fill-opacity="1.000000" fill-rule="evenodd"/>
		<path id="Vector" d="M33.06 15.84L33.06 10.79L28.21 10.79L28.21 15.84L25.29 15.84L25.29 3.26L28.21 3.26L28.21 8.18L33.06 8.18L33.06 3.25L35.98 3.25L35.98 15.83L33.06 15.84Z" fill="#FFFFFF" fill-opacity="1.000000" fill-rule="nonzero"/>
		<path id="Vector" d="M39.67 15.84L39.67 3.26L47.66 3.26L47.66 5.93L42.6 5.93L42.6 8.18L47.21 8.18L47.21 10.72L42.6 10.72L42.6 13.17L47.66 13.17L47.66 15.84L39.67 15.84Z" fill="#FFFFFF" fill-opacity="1.000000" fill-rule="nonzero"/>
		<path id="Vector" d="M51.15 15.84L51.15 3.26L54.07 3.26L54.07 13.18L59.13 13.18L59.13 15.84L51.15 15.84Z" fill="#FFFFFF" fill-opacity="1.000000" fill-rule="nonzero"/>
		<path id="Vector" d="M61.58 15.84L61.58 3.26L64.51 3.26L64.51 13.18L69.57 13.18L69.57 15.84L61.58 15.84Z" fill="#FFFFFF" fill-opacity="1.000000" fill-rule="nonzero"/>
		<path id="Vector" d="M77.81 16.04C73.91 16.04 71.42 13.24 71.42 9.55C71.42 5.86 74.03 3.05 77.94 3.05C81.84 3.05 84.33 5.85 84.33 9.55C84.33 13.26 81.7 16.04 77.81 16.04ZM77.86 5.66C75.87 5.66 74.53 7.29 74.53 9.55C74.53 11.82 75.87 13.45 77.86 13.45C79.86 13.45 81.2 11.8 81.2 9.55C81.2 7.3 79.86 5.66 77.86 5.66Z" fill="#FFFFFF" fill-opacity="1.000000" fill-rule="nonzero"/>
		<path id="Vector" d="M90.65 16.04C89.23 16.04 87.5 15.48 86.41 14.75L87.21 12.11C88.23 12.85 89.55 13.33 90.74 13.33C91.77 13.33 92.17 12.85 92.17 12.23C92.17 11.58 91.84 11.13 89.91 10.36C87.7 9.47 86.92 8.18 86.92 6.67C86.92 4.83 88.42 3.05 91.36 3.05C92.74 3.05 94.15 3.53 94.89 4.03L94.15 6.63C93.42 6.14 92.25 5.6 91.36 5.6C90.29 5.6 89.86 6.1 89.86 6.62C89.86 7.44 90.5 7.72 92.08 8.39C94.44 9.38 95.14 10.51 95.14 12.13C95.14 14.14 93.68 16.04 90.65 16.04Z" fill="#FFFFFF" fill-opacity="1.000000" fill-rule="nonzero"/>
		<path id="Vector" d="M98.28 15.84L98.28 3.26L101.2 3.26L101.2 15.84L98.28 15.84Z" fill="#FFFFFF" fill-opacity="1.000000" fill-rule="nonzero"/>
		<path id="Vector" d="M115.78 8.76L115.78 14.77C114.34 15.63 112.68 16.07 111 16.04C107.3 16.04 104.38 13.4 104.38 9.55C104.38 5.71 107.34 3.05 111.15 3.05C112.81 3.05 114.13 3.48 115.39 4.13L114.16 6.48C113.3 6.02 112.33 5.78 111.35 5.78C108.84 5.78 107.5 7.34 107.5 9.55C107.5 11.96 109.11 13.45 111.17 13.45C112.1 13.45 112.57 13.35 113.03 13.11L113.03 11.25L110.5 11.25L110.5 8.76L115.78 8.76Z" fill="#FFFFFF" fill-opacity="1.000000" fill-rule="nonzero"/>
		<path id="Vector" d="M129.67 16.08L122.07 9.26L122.07 15.84L119.14 15.84L119.14 3.08L119.54 3.01L127.04 9.78L127.04 3.25L129.96 3.25L129.96 16.02L129.67 16.08Z" fill="#FFFFFF" fill-opacity="1.000000" fill-rule="nonzero"/>
	</g>
</svg>
