<svg width="130.000000" height="29.000000" viewBox="0 0 130 29" fill="none" xmlns="http://www.w3.org/2000/svg" xmlns:xlink="http://www.w3.org/1999/xlink">
	<desc>
			Created with Pixso.
	</desc>
	<defs>
		<clipPath id="clip13_2905">
			<rect id="Format=Wordmark" rx="0.000000" width="129.000000" height="27.999998" transform="translate(0.500000 0.500000)" fill="white" fill-opacity="0"/>
		</clipPath>
	</defs>
	<rect id="Format=Wordmark" rx="0.000000" width="129.000000" height="27.999998" transform="translate(0.500000 0.500000)" fill="#FFFFFF" fill-opacity="0"/>
	<g clip-path="url(#clip13_2905)">
		<path id="Vector" d="M22.28 4.97C17.32 4.62 11.8 4.62 6.84 4.97C5.8 5.05 5.01 5.84 4.93 6.81C4.68 9.91 4.65 14.57 4.88 17.67C4.95 18.7 5.86 19.58 7.08 19.58L10.91 19.58L10.91 24.28L7.09 24.28C3.58 24.28 0.43 21.69 0.16 18.02C-0.09 14.67 -0.05 9.78 0.22 6.43C0.49 3.08 3.2 0.51 6.5 0.27C11.68 -0.1 17.44 -0.1 22.62 0.27C25.92 0.51 28.63 3.08 28.9 6.43C29.17 9.78 29.16 14.67 28.91 18.02C28.64 21.69 25.5 24.29 21.99 24.29L18.21 24.29L10.91 29L10.91 24.28L18.21 19.58L22 19.58C23.22 19.58 24.12 18.7 24.2 17.67C24.43 14.57 24.44 9.91 24.19 6.81C24.11 5.84 23.32 5.05 22.28 4.97Z" fill="#FE5000" fill-opacity="1.000000" fill-rule="nonzero"/>
		<path id="Vector" d="M36.34 20.69L47.77 20.69L47.77 17.83L39.8 17.83L39.8 3.43L36.34 3.43L36.34 20.69Z" fill="#FFFFFF" fill-opacity="1.000000" fill-rule="nonzero"/>
		<path id="Vector" d="M49.42 20.69L52.79 20.69L52.79 7.87L49.42 7.87L49.42 20.69ZM49.15 4.52C49.15 5.62 49.97 6.46 51.11 6.46C52.24 6.46 53.06 5.62 53.06 4.52C53.06 3.41 52.24 2.57 51.11 2.57C49.97 2.57 49.15 3.41 49.15 4.52Z" fill="#FFFFFF" fill-opacity="1.000000" fill-rule="nonzero"/>
		<path id="Vector" d="M65.98 7.87L62.62 7.87L59.85 17.26L57.07 7.87L53.71 7.87L58.09 20.69L61.6 20.69L65.98 7.87Z" fill="#FFFFFF" fill-opacity="1.000000" fill-rule="nonzero"/>
		<path id="Vector" d="M71.98 20.98C74.83 20.98 77.13 19.28 77.58 16.94L74.63 16.94C74.31 17.83 73.42 18.57 71.98 18.57C70.03 18.57 69.26 17.26 69.26 15.76L69.26 15.44L77.67 15.44L77.67 13.19C77.67 10.11 75.75 7.57 71.94 7.57C68.08 7.57 66 10.04 66 13.51L66 15.26C66 18.86 68.35 20.98 71.98 20.98ZM69.26 12.95C69.26 11.22 70.01 9.94 71.94 9.94C73.74 9.94 74.58 11.15 74.58 12.75L74.58 13.07L69.26 13.07L69.26 12.95Z" fill="#FFFFFF" fill-opacity="1.000000" fill-rule="nonzero"/>
		<path id="Vector" d="M86.62 21.03C91 21.03 93.69 18.07 93.87 14.55L90.65 14.55C90.43 16.5 89.19 18.2 86.62 18.2C83.72 18.2 82.49 16.22 82.49 13.46L82.49 10.65C82.49 7.89 83.72 5.92 86.62 5.92C89.19 5.92 90.43 7.62 90.65 9.57L93.87 9.57C93.69 6.04 91 3.09 86.62 3.09C81.4 3.09 79.05 6.41 79.05 10.83L79.05 13.29C79.05 17.7 81.4 21.03 86.62 21.03Z" fill="#FFFFFF" fill-opacity="1.000000" fill-rule="nonzero"/>
		<path id="Vector" d="M95.69 20.69L99.06 20.69L99.06 13.09C99.06 11.37 100.02 10.48 101.53 10.48C103.17 10.48 103.88 11.54 103.88 13.02L103.88 20.69L107.25 20.69L107.25 12.48C107.25 9.45 105.49 7.57 102.7 7.57C101.04 7.57 99.73 8.29 99.06 9.4L99.06 2.69L95.69 2.69L95.69 20.69Z" fill="#FFFFFF" fill-opacity="1.000000" fill-rule="nonzero"/>
		<path id="Vector" d="M113.67 20.98C115.15 20.98 116.79 20.37 117.38 19.5L117.38 20.69L120.62 20.69L120.62 12.5C120.62 9.52 118.42 7.57 115.2 7.57C112.43 7.57 110.43 8.9 109.69 11.39L112.8 11.39C113.15 10.7 113.87 10.19 115.03 10.19C116.42 10.19 117.26 11.07 117.26 12.26L117.26 14.01C116.66 13.51 115.53 12.92 113.99 12.92C110.9 12.92 108.8 14.2 108.8 16.99C108.8 19.48 110.78 20.98 113.67 20.98ZM114.54 18.76C113.13 18.76 112.06 18.07 112.06 16.89C112.06 15.71 113.05 15.07 114.63 15.07C116.14 15.07 117.26 15.73 117.26 16.87C117.26 17.95 116.02 18.76 114.54 18.76Z" fill="#FFFFFF" fill-opacity="1.000000" fill-rule="nonzero"/>
		<path id="Vector" d="M126.91 20.69L129.23 20.69L129.23 17.97L127.87 17.97C126.98 17.97 126.66 17.63 126.66 16.79L126.66 10.58L129.41 10.58L129.41 7.87L126.66 7.87L126.66 4.37L123.27 4.37L123.27 7.87L121.44 7.87L121.44 10.58L123.27 10.58L123.27 17.04C123.27 19.31 124.43 20.69 126.91 20.69Z" fill="#FFFFFF" fill-opacity="1.000000" fill-rule="nonzero"/>
	</g>
</svg>
